<?xml version="1.0" encoding="utf-8"?>
<!-- Generator: Adobe Illustrator 22.1.0, SVG Export Plug-In . SVG Version: 6.00 Build 0)  -->
<svg version="1.1" id="Capa_1" xmlns="http://www.w3.org/2000/svg" xmlns:xlink="http://www.w3.org/1999/xlink" x="0px" y="0px"
	 viewBox="0 0 494 80" style="enable-background:new 0 0 494 80;" xml:space="preserve">
<style type="text/css">
	.st0{fill:none;}
	.st1{fill:#FFFFFF;}
	.st2{fill:#FE4918;}
</style>
<rect x="35" y="14" class="st0" width="585" height="71"/>
<g>
	<path class="st1" d="M71.2,61.4c-1.8,1.7-4,2.9-6.5,3.7c-2.5,0.8-5,1.2-7.5,1.2c-2.9,0-5.6-0.5-8.1-1.5c-2.5-1-4.6-2.6-6.4-4.7
		c-1.8-2.1-3.2-4.9-4.3-8.2c-1-3.3-1.6-7.2-1.6-11.8c0-4.8,0.6-8.8,1.8-12.1c1.2-3.3,2.8-6,4.9-8.1s4.3-3.6,6.8-4.5
		c2.5-0.9,5-1.4,7.6-1.4s4.9,0.2,6.8,0.6c2,0.4,3.5,0.9,4.7,1.4l-1.8,8.3c-1.1-0.5-2.3-0.9-3.6-1.1c-1.3-0.3-3-0.4-5.1-0.4
		c-1.9,0-3.6,0.3-5.1,0.9c-1.6,0.6-2.9,1.6-4,3.1c-1.1,1.4-2,3.2-2.7,5.4c-0.6,2.2-0.9,4.9-0.9,8.1c0,3,0.3,5.6,0.9,7.8
		c0.6,2.2,1.4,4,2.5,5.4c1.1,1.4,2.3,2.5,3.8,3.1c1.4,0.7,3,1,4.6,1c1.1,0,2.2-0.2,3.3-0.5c1.1-0.3,2-0.8,2.7-1.4L71.2,61.4z"/>
	<path class="st1" d="M77.7,14.8c0.9-0.1,1.9-0.3,3.1-0.4c1.1-0.1,2.3-0.2,3.5-0.2c1.2,0,2.4-0.1,3.5-0.1c1.1,0,2.2,0,3.1,0
		c4,0,7.4,0.6,10.3,1.9c2.8,1.2,5.2,3,6.9,5.3c1.8,2.3,3.1,4.9,3.9,8.1c0.8,3.1,1.2,6.6,1.2,10.3c0,3.4-0.4,6.7-1.2,9.9
		c-0.8,3.2-2.1,6-3.9,8.4c-1.8,2.4-4.2,4.4-7.2,5.9c-3,1.5-6.6,2.2-11,2.2c-0.7,0-1.6,0-2.8-0.1c-1.1,0-2.3-0.1-3.6-0.2
		c-1.2-0.1-2.4-0.1-3.5-0.2c-1.1-0.1-2-0.2-2.5-0.3C77.7,65.3,77.7,14.8,77.7,14.8z M91.6,22.9c-0.9,0-1.9,0-2.9,0.1
		c-1,0-1.7,0.1-2.2,0.2v33.8c0.2,0,0.5,0.1,0.9,0.1c0.4,0,0.9,0,1.3,0.1c0.5,0,0.9,0,1.4,0.1c0.4,0,0.8,0,1,0c2.5,0,4.6-0.5,6.2-1.5
		c1.7-1,3-2.3,3.9-3.9c1-1.6,1.7-3.5,2-5.7s0.6-4.3,0.6-6.6c0-2-0.2-3.9-0.5-5.9c-0.3-2-1-3.8-1.9-5.4c-0.9-1.6-2.2-2.9-3.8-3.9
		C96.1,23.4,94.1,22.9,91.6,22.9z"/>
	<path class="st1" d="M222.1,42.2l0.8,8.9h0.3l0.9-9.1l7.8-28h5.8l7.7,28.2l0.9,8.9h0.3l1-9.1l5.6-28h8.8l-12.4,50.8h-5.9l-8-28
		l-1.1-7.7h-0.3l-1.1,7.8l-7.9,27.9h-6.2L206.6,14h9.5L222.1,42.2z"/>
	<path class="st1" d="M265.7,14h26.6v8.8h-17.8v11.7h16.2v8.8h-16.2v12.3h18.1v8.8h-26.9V14z"/>
	<path class="st1" d="M329.2,25.7c0,1.2-0.1,2.5-0.4,3.7c-0.3,1.2-0.7,2.4-1.4,3.4c-0.6,1-1.5,1.9-2.5,2.7s-2.2,1.4-3.7,1.8v0.4
		c1.3,0.2,2.5,0.6,3.6,1.2s2.1,1.4,3,2.4c0.8,1,1.5,2.2,2,3.7c0.5,1.4,0.7,3.1,0.7,5.1c0,2.6-0.5,4.8-1.5,6.7
		c-1,1.9-2.3,3.4-3.9,4.6c-1.6,1.2-3.5,2.1-5.6,2.7c-2.1,0.6-4.2,0.9-6.5,0.9c-0.7,0-1.7,0-2.8,0s-2.3,0-3.6-0.1
		c-1.3-0.1-2.6-0.2-4-0.3c-1.3-0.1-2.6-0.4-3.7-0.6V14.4c0.8-0.1,1.7-0.3,2.8-0.4c1-0.1,2.2-0.3,3.4-0.4c1.2-0.1,2.4-0.2,3.7-0.2
		c1.3,0,2.5-0.1,3.7-0.1c2.1,0,4.1,0.2,6.1,0.5c2,0.4,3.8,1,5.3,1.9c1.6,0.9,2.8,2.2,3.7,3.8C328.8,21.2,329.2,23.2,329.2,25.7z
		 M310.5,35.2c0.6,0,1.3,0,2.1-0.1c0.8,0,1.4-0.1,2-0.2c1.6-0.6,3-1.4,4.2-2.6c1.2-1.1,1.8-2.6,1.8-4.5c0-1.2-0.2-2.3-0.6-3.1
		c-0.4-0.8-1-1.4-1.7-1.9c-0.7-0.5-1.5-0.8-2.4-1c-0.9-0.2-1.8-0.3-2.8-0.3c-1.1,0-2.1,0-3.1,0.1c-0.9,0-1.7,0.1-2.2,0.2v13.3
		L310.5,35.2L310.5,35.2z M313.2,56.8c1,0,2.1-0.1,3-0.4s1.9-0.7,2.6-1.3c0.8-0.6,1.4-1.3,1.8-2.2c0.5-0.9,0.7-2,0.7-3.2
		c0-1.6-0.3-2.8-0.8-3.7c-0.5-0.9-1.3-1.6-2.1-2.1c-0.9-0.5-1.9-0.8-3-1c-1.1-0.1-2.2-0.2-3.3-0.2h-4.6v13.8c0.2,0.1,0.5,0.2,1,0.2
		c0.5,0,1,0.1,1.5,0.1c0.5,0,1.1,0,1.6,0.1C312.3,56.8,312.8,56.8,313.2,56.8z"/>
	<path class="st1" d="M367.2,62.3c-1.4,1.1-3.1,1.9-5.2,2.4c-2.1,0.5-4.3,0.7-6.5,0.7c-2.7,0-5.2-0.5-7.7-1.4
		c-2.4-0.9-4.5-2.4-6.4-4.5c-1.8-2.1-3.3-4.8-4.4-8.1c-1.1-3.3-1.6-7.4-1.6-12.1c0-4.9,0.6-9.1,1.8-12.4c1.2-3.3,2.8-6,4.7-8.1
		c1.9-2,4.1-3.5,6.5-4.4c2.4-0.9,4.8-1.3,7.2-1.3c2.6,0,4.7,0.2,6.5,0.6c1.8,0.4,3.2,0.8,4.4,1.4l-1.7,8.4c-1-0.5-2.1-0.9-3.5-1.2
		c-1.3-0.2-3-0.4-4.9-0.4c-3.5,0-6.4,1.4-8.5,4.3c-2.2,2.8-3.2,7.2-3.2,13.2c0,2.6,0.3,5,0.8,7.1c0.5,2.1,1.3,4,2.3,5.5
		c1,1.5,2.3,2.7,3.9,3.5c1.6,0.8,3.4,1.3,5.4,1.3c1.9,0,3.5-0.2,4.9-0.6c1.3-0.4,2.5-1,3.5-1.7L367.2,62.3z"/>
	<path class="st1" d="M392,53.2h-13.8l-3.4,11.2H366l16.1-50.8h6.5l16.1,50.8h-9.2L392,53.2z M380.4,45.3h9.6l-3.3-11.2l-1.3-7.9
		H385l-1.3,8L380.4,45.3z"/>
	<path class="st1" d="M443.4,38.3l1-10h-0.4l-2.8,8.1l-9.5,18.8h-2.8l-10-18.9l-2.8-8h-0.3l1.3,9.9v26.2h-8.3V14h8l12,23l2.1,5.8
		h0.3l1.9-5.9L444.2,14h7.9v50.4h-8.8L443.4,38.3L443.4,38.3z"/>
	<path class="st1" d="M152.1,38.1l1-10h-0.4l-2.8,8.1l-9.6,18.8h-2.8L127.2,36l-2.8-8H124l1.3,9.9v26.2h-8.4V13.8h8.1l12.1,23
		l2.1,5.8h0.3l1.9-5.9l11.5-22.9h8v50.4h-8.9L152.1,38.1L152.1,38.1z"/>
	<path class="st1" d="M458.9,14.5c1.8-0.4,3.8-0.7,5.9-0.9c2.2-0.2,4.3-0.3,6.4-0.3c2.2,0,4.4,0.2,6.7,0.6c2.2,0.4,4.3,1.2,6,2.4
		c1.8,1.2,3.3,2.9,4.4,5.1c1.1,2.2,1.7,5,1.7,8.5c0,3.2-0.5,5.8-1.5,8c-1,2.2-2.3,4-3.9,5.4c-1.6,1.4-3.5,2.4-5.5,3
		c-2.1,0.6-4.2,0.9-6.4,0.9c-0.2,0-0.6,0-1,0s-1,0-1.5,0c-0.5,0-1-0.1-1.5-0.1c-0.5,0-0.8-0.1-1.1-0.1v17.4h-8.8L458.9,14.5
		L458.9,14.5z M471.9,21.8c-0.9,0-1.7,0-2.4,0.1c-0.8,0.1-1.4,0.2-1.9,0.3v16.3c0.2,0,0.4,0.1,0.8,0.1c0.3,0,0.7,0.1,1.1,0.1
		c0.4,0,0.8,0,1.1,0c0.4,0,0.6,0,0.8,0c1.2,0,2.3-0.1,3.4-0.4c1.1-0.2,2.1-0.7,3-1.3c0.9-0.6,1.6-1.5,2.1-2.7
		c0.5-1.2,0.8-2.7,0.8-4.5c0-1.6-0.3-2.9-0.8-3.9c-0.5-1-1.2-1.9-2-2.5c-0.8-0.6-1.8-1.1-2.8-1.3C474.1,21.9,473,21.8,471.9,21.8z"
		/>
	<polygon class="st1" points="164.2,14.3 194.9,65.7 205.6,65.7 174.6,14.3 	"/>
	<polygon class="st1" points="205,14.3 175.1,64.2 164.8,64.2 194.8,14.3 	"/>
</g>
<rect x="5" y="9.2" class="st2" width="18" height="58.8"/>
</svg>
